#define tiles42_width 16
#define tiles42_height 16
static char tiles42_bits[] = {
  0xFF, 0xFF, 0x80, 0xFF, 0x5F, 0xFE, 0xBF, 0xF9, 0xBF, 0xE7, 0xBF, 0x9F, 
  0xBF, 0x7F, 0xBF, 0x7F, 0xBF, 0x7F, 0xBF, 0x7F, 0xBF, 0x7F, 0xBF, 0x7F, 
  0xBF, 0x7F, 0xBF, 0x7F, 0xBF, 0x7F, 0xBF, 0x7F, };
