#define tiles87_width 16
#define tiles87_height 16
static char tiles87_bits[] = {
  0xFF, 0xFF, 0xFF, 0xFF, 0xFF, 0xFF, 0xFF, 0xFF, 0xFF, 0xFF, 0xFF, 0xFF, 
  0xFF, 0xFF, 0xFF, 0xFF, 0xFF, 0xFF, 0x11, 0xC0, 0xE4, 0x8A, 0x2A, 0x80, 
  0x2A, 0xE0, 0x24, 0x80, 0x11, 0xC0, 0xFF, 0xFF, };
