#define tiles233_width 16
#define tiles233_height 16
static char tiles233_bits[] = {
  0x47, 0xA4, 0xC7, 0xA4, 0xC7, 0xA4, 0xC0, 0xBC, 0xC0, 0xA4, 0xC0, 0xA4, 
  0xFF, 0xA4, 0xFE, 0xE4, 0x00, 0xA4, 0x00, 0xA4, 0xFF, 0xA7, 0x10, 0xA0, 
  0x10, 0xA0, 0xFF, 0xBF, 0x01, 0x81, 0xFF, 0xFF, };
