#define tiles130_width 16
#define tiles130_height 16
static char tiles130_bits[] = {
  0xFF, 0xFF, 0xFF, 0xFF, 0xFF, 0xF0, 0x3F, 0xE0, 0x1F, 0xC0, 0x1F, 0xB8, 
  0x2F, 0xBE, 0xF7, 0x9F, 0xE3, 0xAF, 0xC3, 0xB7, 0x8B, 0xBF, 0x7B, 0xB8, 
  0xBB, 0xB7, 0xDB, 0xEF, 0xD7, 0xEF, 0xFF, 0xFF, };
