#define tiles23_width 16
#define tiles23_height 16
static char tiles23_bits[] = {
  0xFF, 0xFF, 0xFF, 0xFF, 0xFF, 0xFF, 0xF8, 0xFF, 0xE0, 0xFF, 0x80, 0xFF, 
  0x00, 0xFF, 0x00, 0xFE, 0x00, 0xFE, 0x00, 0xFB, 0x80, 0xF3, 0xF0, 0xE3, 
  0xF8, 0xE1, 0x7F, 0xE0, 0x3F, 0xF0, 0x1F, 0xD8, };
