#define tiles155_width 16
#define tiles155_height 16
static char tiles155_bits[] = {
  0x81, 0xD3, 0x81, 0xD3, 0x81, 0xE3, 0x81, 0xA3, 0x81, 0xA3, 0x81, 0xE3, 
  0x81, 0xD3, 0x81, 0xD3, 0xC1, 0xFF, 0x01, 0x00, 0x01, 0x00, 0x01, 0x00, 
  0x03, 0x00, 0xFF, 0xFF, 0xFD, 0xFF, 0x03, 0x00, };
