#define tiles116_width 16
#define tiles116_height 16
static char tiles116_bits[] = {
  0xFF, 0xFF, 0xC3, 0xFF, 0x81, 0xFF, 0xBD, 0xFF, 0x83, 0xFF, 0x81, 0xFF, 
  0x81, 0xFF, 0xBD, 0xFF, 0xBF, 0xFF, 0x83, 0xFF, 0x81, 0xFF, 0x81, 0xFF, 
  0xBD, 0xFF, 0xBD, 0xFF, 0xBD, 0xFF, 0xFF, 0xFF, };
