#define tiles146_width 16
#define tiles146_height 16
static char tiles146_bits[] = {
  0xFF, 0xFF, 0x01, 0x80, 0x01, 0xC0, 0xF1, 0xEF, 0xF1, 0xEF, 0xF1, 0xEB, 
  0xF1, 0xEB, 0xF1, 0xEA, 0xF1, 0xEB, 0x31, 0xE8, 0x01, 0xE0, 0xF1, 0xEF, 
  0xF9, 0xDF, 0xFD, 0xBF, 0xFD, 0xBF, 0xFF, 0xFF, };
