#define tiles161_width 16
#define tiles161_height 16
static char tiles161_bits[] = {
  0xFF, 0xFF, 0xFF, 0xFF, 0xFF, 0xFF, 0x00, 0x00, 0xFF, 0xFF, 0xFF, 0xFF, 
  0x3C, 0x3C, 0x34, 0x34, 0x34, 0x34, 0x18, 0x18, 0x00, 0x00, 0x00, 0x00, 
  0xFF, 0xFF, 0xFF, 0xFF, 0xFF, 0xFF, 0xFF, 0xFF, };
