#define tiles99_width 16
#define tiles99_height 16
static char tiles99_bits[] = {
  0xFF, 0x8F, 0xFF, 0x8F, 0xFF, 0x87, 0xFB, 0x8F, 0xEB, 0x87, 0xEF, 0x8F, 
  0xFF, 0x8F, 0xFF, 0x8D, 0xFF, 0x8F, 0xFF, 0x8F, 0xFF, 0x87, 0xEF, 0x8F, 
  0xD7, 0x8F, 0xEF, 0x87, 0xFF, 0x8F, 0xFF, 0xFF, };
