#define tiles40_width 16
#define tiles40_height 16
static char tiles40_bits[] = {
  0xFF, 0xFF, 0xFF, 0x01, 0x7F, 0xF8, 0x1F, 0xFD, 0x47, 0xFC, 0x49, 0xFC, 
  0x6C, 0xFD, 0xDA, 0xFC, 0x48, 0xFC, 0x48, 0xFC, 0x6C, 0xFD, 0xDA, 0xFC, 
  0x48, 0xFC, 0x48, 0xFC, 0x6C, 0xFD, 0xDA, 0xFC, };
