#define tiles22_width 16
#define tiles22_height 16
static char tiles22_bits[] = {
  0xFF, 0xFF, 0xFF, 0xFF, 0xFF, 0xFF, 0xFF, 0x1F, 0xFF, 0x07, 0xFF, 0x01, 
  0xFF, 0x00, 0x7F, 0x00, 0x7F, 0x00, 0xDF, 0x00, 0x0F, 0x01, 0x07, 0x0E, 
  0x07, 0x18, 0x07, 0xF0, 0x0F, 0xE0, 0x13, 0x80, };
