#define tiles86_width 16
#define tiles86_height 16
static char tiles86_bits[] = {
  0xFF, 0xFF, 0xFF, 0xFF, 0xFF, 0xFF, 0xFF, 0xFF, 0xFF, 0xFF, 0xFF, 0xFF, 
  0xFF, 0xFF, 0xFF, 0xFF, 0xFF, 0xFF, 0x03, 0x88, 0x51, 0x27, 0x01, 0x54, 
  0x07, 0x54, 0x01, 0x24, 0x03, 0x88, 0xFF, 0xFF, };
