#define tiles91_width 16
#define tiles91_height 16
static char tiles91_bits[] = {
  0x00, 0xFF, 0x10, 0x81, 0x0C, 0x81, 0x0E, 0x81, 0x07, 0x81, 0x0F, 0x81, 
  0x0B, 0x81, 0x0B, 0x81, 0x0B, 0x81, 0x0B, 0x81, 0x07, 0x81, 0x05, 0x81, 
  0x05, 0x81, 0x07, 0x81, 0x0B, 0x81, 0x0B, 0x81, };
