#define tiles157_width 16
#define tiles157_height 16
static char tiles157_bits[] = {
  0xFF, 0xFF, 0xFF, 0xFF, 0xFF, 0xFF, 0xFF, 0xFF, 0xFF, 0xFF, 0xFF, 0xFF, 
  0xFF, 0xFF, 0xC3, 0xC3, 0x00, 0x00, 0x00, 0x00, 0x00, 0x00, 0x00, 0x00, 
  0xC3, 0xC3, 0x3C, 0x3C, 0xE7, 0xE7, 0xFF, 0xFF, };
