#define tiles56_width 16
#define tiles56_height 16
static char tiles56_bits[] = {
  0x48, 0xFC, 0x48, 0xFC, 0x6C, 0xFD, 0xDA, 0xFC, 0x48, 0xFC, 0x48, 0xF8, 
  0x6C, 0x00, 0x5A, 0x20, 0x08, 0x22, 0x08, 0xFF, 0x84, 0x88, 0x82, 0x88, 
  0xF0, 0xFF, 0x20, 0x22, 0x21, 0x22, 0xFF, 0xFF, };
