#define tiles139_width 16
#define tiles139_height 16
static char tiles139_bits[] = {
  0xFF, 0xFF, 0x03, 0x00, 0x01, 0x00, 0x01, 0x00, 0x41, 0x00, 0x81, 0xFF, 
  0x81, 0xFF, 0x81, 0xFF, 0x81, 0x07, 0x81, 0x0B, 0x81, 0x33, 0x81, 0x73, 
  0x81, 0xE3, 0x81, 0xF3, 0x81, 0xD3, 0x81, 0xD3, };
