#define tiles144_width 16
#define tiles144_height 16
static char tiles144_bits[] = {
  0x81, 0x8E, 0x81, 0x8E, 0x81, 0x8E, 0x81, 0x8E, 0x81, 0x8E, 0x81, 0x8E, 
  0x81, 0x8E, 0x81, 0x8E, 0x81, 0x8E, 0x81, 0x8E, 0x81, 0x8E, 0x81, 0x8E, 
  0x81, 0x8E, 0x81, 0x8E, 0x81, 0x8E, 0x81, 0x8E, };
