#define tiles52_width 16
#define tiles52_height 16
static char tiles52_bits[] = {
  0xFF, 0xFF, 0x10, 0x88, 0x00, 0x88, 0x00, 0x80, 0x00, 0x80, 0x00, 0x80, 
  0x00, 0x80, 0x00, 0x80, 0x00, 0x80, 0x40, 0x80, 0xFF, 0xFF, 0x48, 0x88, 
  0xFF, 0xFF, 0xFF, 0xE7, 0xFF, 0xC7, 0xFF, 0xFF, };
