#define tiles28_width 16
#define tiles28_height 16
static char tiles28_bits[] = {
  0xDC, 0xFF, 0xEE, 0xFF, 0xF1, 0xFF, 0xEE, 0xFF, 0xFF, 0xFF, 0xFF, 0xFF, 
  0xFF, 0xFF, 0xFF, 0xFF, 0xFF, 0xFF, 0xFF, 0xFF, 0xFF, 0xFF, 0xFF, 0xFF, 
  0xFF, 0xFF, 0xFF, 0xFF, 0xFF, 0xFF, 0xFF, 0xFF, };
