#define tiles238_width 16
#define tiles238_height 16
static char tiles238_bits[] = {
  0xFF, 0xFF, 0x01, 0x80, 0xFF, 0xFF, 0x01, 0x80, 0x01, 0x80, 0xF1, 0x8F, 
  0x09, 0x90, 0x07, 0xE0, 0x05, 0xA0, 0xFD, 0xFF, 0x03, 0xC0, 0x01, 0x80, 
  0x01, 0x80, 0xFD, 0xBF, 0x03, 0xC0, 0x01, 0x80, };
