#define tiles150_width 16
#define tiles150_height 16
static char tiles150_bits[] = {
  0x4D, 0xF0, 0x4D, 0xF0, 0x4D, 0xF0, 0x2D, 0xF0, 0x1F, 0xF0, 0x0D, 0xF0, 
  0x0D, 0xE0, 0x1B, 0x80, 0xFF, 0xFF, 0x03, 0x80, 0x89, 0xF1, 0x89, 0xF1, 
  0x89, 0xF1, 0x89, 0xF1, 0x77, 0x8F, 0xFF, 0xFF, };
