#define tiles174_width 16
#define tiles174_height 16
static char tiles174_bits[] = {
  0x55, 0x55, 0xF3, 0xCF, 0xFD, 0xBF, 0xFE, 0x7F, 0xFE, 0x7F, 0xFF, 0xFF, 
  0x1F, 0xF8, 0xFF, 0xFF, 0x07, 0xE0, 0xFF, 0xFF, 0x03, 0xC0, 0x03, 0xC0, 
  0xFF, 0xFF, 0x01, 0x80, 0x01, 0x80, 0x01, 0x80, };
