#define tiles9_width 16
#define tiles9_height 16
static char tiles9_bits[] = {
  0xFF, 0xFF, 0xFF, 0xFF, 0xFF, 0xFF, 0xFF, 0xFF, 0xFF, 0xFF, 0xFF, 0xFF, 
  0xFF, 0xFF, 0xFF, 0xFF, 0xFF, 0xFF, 0xFC, 0xFF, 0xF0, 0xFF, 0xE0, 0xFF, 
  0xC0, 0xFF, 0xC0, 0xFF, 0x80, 0xFF, 0x80, 0xFF, };
