#define tiles231_width 16
#define tiles231_height 16
static char tiles231_bits[] = {
  0x07, 0x80, 0xF7, 0xBF, 0xF7, 0xBF, 0xF7, 0xBF, 0xF0, 0xBF, 0xF7, 0xBF, 
  0x07, 0x80, 0xFF, 0xFF, 0xFF, 0xFF, 0xFF, 0xFF, 0xFF, 0xFF, 0xFF, 0xFF, 
  0xFF, 0xFF, 0xFF, 0xFF, 0xFF, 0xFF, 0xFF, 0xFF, };
