#define tiles124_width 16
#define tiles124_height 16
static char tiles124_bits[] = {
  0x81, 0xD0, 0x81, 0xD0, 0x81, 0xE0, 0x81, 0xA0, 0x81, 0xA0, 0x81, 0xE0, 
  0x81, 0xD0, 0x81, 0xD0, 0x81, 0xD0, 0x81, 0xD0, 0x81, 0xE0, 0x81, 0xA0, 
  0x81, 0xA0, 0xBD, 0xE0, 0xBD, 0xD0, 0xFF, 0xD0, };
