#define tiles220_width 16
#define tiles220_height 16
static char tiles220_bits[] = {
  0x01, 0x80, 0x01, 0x80, 0x01, 0x80, 0x01, 0x80, 0x01, 0xBF, 0x01, 0xBF, 
  0x01, 0xBF, 0x01, 0x80, 0x01, 0x80, 0x01, 0x80, 0x01, 0x80, 0x01, 0x80, 
  0x01, 0x80, 0x01, 0x80, 0x01, 0x80, 0x01, 0x80, };
