#define tiles50_width 16
#define tiles50_height 16
static char tiles50_bits[] = {
  0xFF, 0xFF, 0xFF, 0xFF, 0xFF, 0xFF, 0x47, 0xE0, 0x07, 0xF0, 0x07, 0xE0, 
  0x07, 0xE0, 0x0F, 0xE0, 0x07, 0xE0, 0x07, 0xE1, 0xFF, 0xFF, 0x07, 0xE1, 
  0xFF, 0xFF, 0xCF, 0xF3, 0xFF, 0xFF, 0xFF, 0xFF, };
