#define tiles62_width 16
#define tiles62_height 16
static char tiles62_bits[] = {
  0xFF, 0xFF, 0xE7, 0xE7, 0x3C, 0x3C, 0xC3, 0xC3, 0x00, 0x00, 0x00, 0x00, 
  0x00, 0x00, 0x00, 0x00, 0xFF, 0xFF, 0x00, 0x00, 0x00, 0x00, 0x00, 0x00, 
  0x00, 0x00, 0xFF, 0xFF, 0xFF, 0xFF, 0xFF, 0xFF, };
