#define tiles106_width 16
#define tiles106_height 16
static char tiles106_bits[] = {
  0xE5, 0x13, 0x25, 0x12, 0x25, 0x12, 0x25, 0x12, 0x3D, 0x12, 0x25, 0x12, 
  0x25, 0x12, 0x25, 0x12, 0xE5, 0x13, 0x25, 0x12, 0x25, 0x12, 0x25, 0x12, 
  0x3D, 0x12, 0x25, 0x12, 0x25, 0x12, 0x25, 0x12, };
