#define tiles121_width 16
#define tiles121_height 16
static char tiles121_bits[] = {
  0xFF, 0xFF, 0x00, 0x00, 0xFF, 0xFF, 0x08, 0x08, 0x08, 0x08, 0xFF, 0xFF, 
  0x80, 0x80, 0x80, 0x80, 0x80, 0x80, 0xFF, 0xFF, 0x00, 0x00, 0x00, 0x00, 
  0xFF, 0xFF, 0x00, 0x00, 0x00, 0x00, 0x00, 0x00, };
