#define tiles67_width 16
#define tiles67_height 16
static char tiles67_bits[] = {
  0x00, 0xF8, 0x00, 0xF0, 0x08, 0xE1, 0x5A, 0xC3, 0xFF, 0x87, 0xFD, 0x8F, 
  0xD9, 0x8F, 0xC9, 0x8F, 0xCB, 0x8F, 0xEF, 0x87, 0xFF, 0x8F, 0xBF, 0x87, 
  0x5F, 0x8F, 0xBF, 0x8F, 0xFF, 0x8F, 0xFF, 0xFF, };
