#define tiles2_width 16
#define tiles2_height 16
static char tiles2_bits[] = {
  0x07, 0x00, 0x03, 0x00, 0xFF, 0xFF, 0xFF, 0xFF, 0x07, 0x00, 0x03, 0x00, 
  0xFF, 0xFF, 0xFF, 0xFF, 0x07, 0x00, 0x03, 0x00, 0xFF, 0xFF, 0xFF, 0xFF, 
  0x07, 0x00, 0x03, 0x00, 0xFF, 0xFF, 0xFF, 0xFF, };
