#define tiles25_width 16
#define tiles25_height 16
static char tiles25_bits[] = {
  0x00, 0xFF, 0x00, 0xFC, 0x00, 0xF0, 0x00, 0xE0, 0x00, 0xC0, 0x00, 0xC0, 
  0x00, 0x80, 0x00, 0x80, 0x00, 0x00, 0x00, 0x00, 0x00, 0x00, 0x00, 0x00, 
  0x00, 0x00, 0x00, 0x00, 0x00, 0x00, 0x00, 0x00, };
