#define tiles54_width 16
#define tiles54_height 16
static char tiles54_bits[] = {
  0xFF, 0xFF, 0x00, 0x00, 0x00, 0x00, 0x00, 0x00, 0x00, 0x00, 0x00, 0x00, 
  0x00, 0x00, 0x00, 0x00, 0x00, 0x00, 0x00, 0x10, 0xFF, 0xFF, 0x00, 0x10, 
  0xFF, 0xFF, 0xFF, 0xFF, 0x49, 0x92, 0x49, 0x92, };
