#define tiles63_width 16
#define tiles63_height 16
static char tiles63_bits[] = {
  0xFF, 0xFF, 0xE7, 0xFF, 0x3C, 0xFC, 0xC3, 0xF7, 0x00, 0xE8, 0x00, 0xF0, 
  0x00, 0xE0, 0x00, 0xE0, 0x7F, 0xD0, 0xC0, 0xD0, 0x80, 0xE0, 0x80, 0xA0, 
  0x82, 0xA1, 0x81, 0xE3, 0x81, 0xD3, 0x81, 0xD3, };
