#define tiles127_width 16
#define tiles127_height 16
static char tiles127_bits[] = {
  0x00, 0xF0, 0x00, 0xD0, 0x00, 0xE8, 0x00, 0xF6, 0xC3, 0xF9, 0x3C, 0xBE, 
  0xE7, 0xCF, 0xFF, 0xE3, 0x00, 0xE0, 0x00, 0xF0, 0x00, 0xD8, 0x00, 0xEE, 
  0xC3, 0xF3, 0x3C, 0xFC, 0xE7, 0xFF, 0xFF, 0xFF, };
