#define tiles207_width 16
#define tiles207_height 16
static char tiles207_bits[] = {
  0x00, 0x01, 0x40, 0x03, 0x40, 0x03, 0xFF, 0xFF, 0x7F, 0xFF, 0xFF, 0xFF, 
  0x7F, 0xFF, 0xFF, 0xFF, 0x41, 0x83, 0x39, 0x9C, 0x45, 0xA2, 0x45, 0xA2, 
  0x39, 0x9C, 0x01, 0x80, 0xFB, 0xDF, 0x01, 0x80, };
