#define tiles159_width 16
#define tiles159_height 16
static char tiles159_bits[] = {
  0x00, 0x00, 0xE0, 0x07, 0xF8, 0x1F, 0xFC, 0x3F, 0xBF, 0xFD, 0xAE, 0x75, 
  0xAF, 0xF5, 0xAD, 0xB5, 0x06, 0x60, 0xFE, 0x7F, 0xAD, 0xB5, 0xAD, 0xB5, 
  0xBE, 0x7D, 0xFD, 0xBF, 0xFB, 0xDF, 0xFF, 0xFF, };
