#define tiles184_width 16
#define tiles184_height 16
static char tiles184_bits[] = {
  0x47, 0xA4, 0xC6, 0xA4, 0xC7, 0xA4, 0xFE, 0xBC, 0xC1, 0xA4, 0xC6, 0xA4, 
  0xC7, 0xA4, 0xC6, 0xE7, 0x47, 0xA6, 0x46, 0xA6, 0x47, 0xA6, 0x7E, 0xBE, 
  0x41, 0xA2, 0x46, 0xA6, 0x47, 0xA6, 0xC6, 0xE7, };
