#define tiles128_width 16
#define tiles128_height 16
static char tiles128_bits[] = {
  0xFF, 0xFF, 0x03, 0xFD, 0x81, 0xFE, 0x81, 0x0E, 0x81, 0xF6, 0x81, 0xFE, 
  0x81, 0x1E, 0x81, 0x0E, 0x81, 0x0E, 0x81, 0x0E, 0x81, 0x0E, 0x81, 0x0E, 
  0x81, 0x0E, 0x81, 0x8E, 0x81, 0x8E, 0xFD, 0xFE, };
