#define tiles27_width 16
#define tiles27_height 16
static char tiles27_bits[] = {
  0xFF, 0x3B, 0xFF, 0x77, 0xFF, 0x8F, 0xFF, 0x77, 0xFF, 0xFF, 0xFF, 0xFF, 
  0xFF, 0xFF, 0xFF, 0xFF, 0xFF, 0xFF, 0xFF, 0xFF, 0xFF, 0xFF, 0xFF, 0xFF, 
  0xFF, 0xFF, 0xFF, 0xFF, 0xFF, 0xFF, 0xFF, 0xFF, };
