#define tiles190_width 16
#define tiles190_height 16
static char tiles190_bits[] = {
  0xFF, 0xFF, 0x01, 0x80, 0xFD, 0xBF, 0xFD, 0xBF, 0x0D, 0xA0, 0x6D, 0xA6, 
  0x9F, 0xE9, 0x0D, 0xB0, 0x61, 0x86, 0x99, 0x99, 0xFD, 0xBF, 0x01, 0x80, 
  0xFD, 0xBF, 0x05, 0xA0, 0x85, 0xA1, 0x05, 0xA0, };
