#define tiles24_width 16
#define tiles24_height 16
static char tiles24_bits[] = {
  0xFF, 0x00, 0x3F, 0x00, 0x0F, 0x00, 0x07, 0x00, 0x03, 0x00, 0x03, 0x00, 
  0x01, 0x00, 0x01, 0x00, 0x00, 0x00, 0x00, 0x00, 0x00, 0x00, 0x00, 0x00, 
  0x00, 0x00, 0x00, 0x00, 0x00, 0x00, 0x00, 0x00, };
