#define tiles19_width 16
#define tiles19_height 16
static char tiles19_bits[] = {
  0xFF, 0xFF, 0xFF, 0xFF, 0xFF, 0xFE, 0x6F, 0xFE, 0x4F, 0xFE, 0x4F, 0xFF, 
  0xDF, 0xFF, 0xFF, 0xFF, 0xFF, 0xFF, 0xFF, 0xFF, 0xFF, 0xFF, 0xFF, 0xFF, 
  0xFF, 0xFF, 0xFF, 0xFF, 0xFF, 0xFF, 0xFF, 0xFF, };
