#define tiles134_width 16
#define tiles134_height 16
static char tiles134_bits[] = {
  0xFF, 0xFF, 0x13, 0x83, 0x89, 0xF1, 0x89, 0xF1, 0x89, 0xF1, 0x89, 0xF1, 
  0x03, 0x80, 0xFF, 0xFF, 0x1B, 0x80, 0x0D, 0xE0, 0x0D, 0xF0, 0x0D, 0xFF, 
  0x8D, 0xE0, 0x4D, 0xF0, 0x4D, 0xF0, 0x4D, 0xF0, };
