#define tiles170_width 16
#define tiles170_height 16
static char tiles170_bits[] = {
  0x55, 0x55, 0xEF, 0xF7, 0xEF, 0x77, 0x20, 0xF0, 0x30, 0x08, 0x10, 0xE4, 
  0xFF, 0x63, 0x7F, 0xE3, 0x81, 0x62, 0x41, 0xE3, 0x3F, 0x63, 0x30, 0xFB, 
  0x28, 0x0F, 0x27, 0xE3, 0x26, 0x63, 0xE7, 0xE3, };
