#define tiles15_width 16
#define tiles15_height 16
static char tiles15_bits[] = {
  0x00, 0xFC, 0x00, 0xF0, 0xFF, 0xE1, 0x01, 0xC6, 0xFE, 0x8D, 0xFF, 0x9B, 
  0xFF, 0x11, 0xFF, 0x37, 0xFF, 0x2F, 0xFF, 0x2F, 0xFF, 0x6F, 0xFF, 0x6F, 
  0xFF, 0x7F, 0xFF, 0x37, 0xFF, 0x37, 0xFF, 0x3B, };
