#define tiles4_width 16
#define tiles4_height 16
static char tiles4_bits[] = {
  0x00, 0xC0, 0x00, 0x80, 0xFF, 0xFF, 0xFF, 0xFF, 0x00, 0xC0, 0x00, 0x80, 
  0xFF, 0xFF, 0xFF, 0xFF, 0x00, 0xC0, 0x00, 0x80, 0xFF, 0xFF, 0xFF, 0xFF, 
  0x00, 0xC0, 0x00, 0x80, 0xFF, 0xFF, 0xFF, 0xFF, };
