#define tiles126_width 16
#define tiles126_height 16
static char tiles126_bits[] = {
  0x00, 0x00, 0xE0, 0x07, 0xF8, 0x1F, 0x1C, 0x38, 0x0F, 0xF0, 0xFE, 0x7F, 
  0x07, 0xE0, 0x07, 0xE0, 0xFE, 0x7F, 0x06, 0x6B, 0x07, 0xF9, 0xFF, 0xFF, 
  0x06, 0x7E, 0x07, 0xE0, 0xFF, 0xFF, 0xFF, 0xFF, };
