#define tiles239_width 16
#define tiles239_height 16
static char tiles239_bits[] = {
  0xFF, 0xFF, 0x01, 0x80, 0xFF, 0xFF, 0x01, 0x80, 0x01, 0x80, 0x19, 0x98, 
  0xE9, 0x97, 0x0F, 0xF0, 0x11, 0x98, 0xFD, 0xFF, 0x03, 0xC0, 0x01, 0x80, 
  0x01, 0x80, 0xFD, 0xBF, 0x03, 0xC0, 0x01, 0x80, };
