#define tiles179_width 16
#define tiles179_height 16
static char tiles179_bits[] = {
  0x01, 0xC0, 0xFF, 0xFF, 0xFF, 0xBF, 0x01, 0x80, 0x01, 0x80, 0x01, 0x80, 
  0x01, 0x80, 0x01, 0x80, 0x01, 0xBF, 0x01, 0xBF, 0x01, 0xBF, 0x01, 0x80, 
  0xF1, 0x87, 0xF1, 0x87, 0xF1, 0x87, 0x01, 0x80, };
