#define tiles6_width 16
#define tiles6_height 16
static char tiles6_bits[] = {
  0x00, 0xDE, 0x10, 0xFF, 0xF0, 0xFF, 0xF8, 0x1F, 0xBF, 0x07, 0xDF, 0x01, 
  0xEF, 0x00, 0x70, 0x00, 0x78, 0x00, 0xDC, 0x00, 0x0F, 0x01, 0x07, 0x0E, 
  0x07, 0x18, 0x07, 0xF0, 0x0F, 0xE0, 0x13, 0x80, };
