#define tiles16_width 16
#define tiles16_height 16
static char tiles16_bits[] = {
  0xFF, 0xFF, 0xFF, 0xFF, 0xFF, 0xEF, 0xFF, 0xE6, 0xFF, 0xE4, 0xFF, 0xB4, 
  0xFF, 0x9D, 0xFF, 0xDF, 0xFF, 0xFF, 0xBF, 0xFF, 0x9B, 0xFF, 0x93, 0xFF, 
  0xD3, 0xFF, 0xF7, 0xFF, 0xFF, 0xFF, 0xFF, 0xFF, };
