#define tiles217_width 16
#define tiles217_height 16
static char tiles217_bits[] = {
  0xFF, 0xFF, 0x01, 0x81, 0xFF, 0xBF, 0x10, 0xA0, 0x10, 0xA0, 0xFF, 0xA7, 
  0x01, 0xA4, 0x01, 0xA4, 0xFD, 0xE4, 0xFF, 0xA4, 0xC0, 0xA4, 0xC0, 0xA4, 
  0xC0, 0xBC, 0xC7, 0xA4, 0x47, 0xA4, 0xC7, 0xA7, };
