#define tiles168_width 16
#define tiles168_height 16
static char tiles168_bits[] = {
  0x55, 0x55, 0xEE, 0xF7, 0xEF, 0xF7, 0x0E, 0x04, 0x11, 0x0C, 0x26, 0x08, 
  0xC7, 0xFF, 0xC6, 0xFE, 0x47, 0x81, 0xC6, 0x82, 0xC7, 0xFC, 0xDE, 0x0C, 
  0xF1, 0x14, 0xC6, 0xE4, 0xC7, 0x64, 0xC6, 0xE7, };
