#define tiles44_width 16
#define tiles44_height 16
static char tiles44_bits[] = {
  0xFF, 0xFF, 0x00, 0x80, 0x00, 0x80, 0x00, 0x80, 0x00, 0x80, 0xFF, 0xBF, 
  0xFF, 0xBF, 0xFF, 0xFF, 0x00, 0xE0, 0x00, 0xF0, 0x00, 0xD8, 0x00, 0xEE, 
  0xC3, 0xF3, 0x3C, 0xFC, 0xE7, 0xFF, 0xFF, 0xFF, };
