#define tiles88_width 16
#define tiles88_height 16
static char tiles88_bits[] = {
  0x00, 0x00, 0x00, 0x00, 0x00, 0x00, 0xF8, 0xFF, 0xF8, 0xFF, 0xF8, 0xFF, 
  0xF8, 0xFF, 0xF8, 0x00, 0x78, 0xFF, 0x78, 0xFF, 0x78, 0xFF, 0x78, 0x0F, 
  0x78, 0xF7, 0x78, 0xF7, 0x78, 0x37, 0xF8, 0xB7, };
