#define tiles31_width 16
#define tiles31_height 16
static char tiles31_bits[] = {
  0xFF, 0x3B, 0xFF, 0x37, 0xFF, 0x2F, 0xFF, 0x6F, 0xFF, 0x6F, 0xFF, 0x6F, 
  0xFF, 0x77, 0xFF, 0x37, 0xFF, 0x2F, 0xFF, 0x6F, 0xFF, 0x6F, 0xFF, 0x6F, 
  0xFF, 0x6F, 0xFF, 0x77, 0xFF, 0x37, 0xFF, 0x3B, };
