#define tiles39_width 16
#define tiles39_height 16
static char tiles39_bits[] = {
  0x00, 0x9E, 0x10, 0x9F, 0xF0, 0x8F, 0xF8, 0x87, 0x3F, 0x80, 0x1F, 0xC0, 
  0x2F, 0xE0, 0x60, 0xFC, 0xF0, 0xFF, 0xF8, 0xFF, 0xFF, 0xFE, 0x7F, 0xFC, 
  0xFF, 0xFF, 0xFF, 0xFF, 0xFE, 0xFF, 0xFF, 0xFF, };
