#define tiles79_width 16
#define tiles79_height 16
static char tiles79_bits[] = {
  0x81, 0xD3, 0x81, 0xD3, 0x81, 0xE3, 0x81, 0xA3, 0x81, 0xA3, 0x81, 0xE3, 
  0x81, 0xD3, 0x81, 0xD3, 0x81, 0xD3, 0x81, 0xD3, 0x81, 0xE3, 0x81, 0xA3, 
  0x81, 0xA3, 0x81, 0xE3, 0x81, 0xD3, 0x81, 0xD3, };
