#define tiles216_width 16
#define tiles216_height 16
static char tiles216_bits[] = {
  0xFF, 0xFF, 0x81, 0x80, 0xFD, 0xFF, 0x05, 0x08, 0x05, 0x08, 0xE5, 0xFF, 
  0x25, 0x80, 0x25, 0x80, 0x27, 0xBF, 0x25, 0xFF, 0x25, 0x03, 0x25, 0x03, 
  0x3D, 0x03, 0x25, 0xE3, 0x25, 0xE2, 0xE5, 0xE3, };
