#define tiles12_width 16
#define tiles12_height 16
static char tiles12_bits[] = {
  0xFF, 0xFF, 0xFF, 0xFF, 0xFF, 0xFF, 0xFF, 0xFF, 0xFF, 0xFF, 0xFF, 0xFF, 
  0xFF, 0xFF, 0xFF, 0xFF, 0xFF, 0xFF, 0xFD, 0xFF, 0xFE, 0xFF, 0xDE, 0xFF, 
  0xED, 0xFF, 0xE3, 0xFF, 0xEF, 0xFF, 0xDE, 0xFF, };
