#define tiles103_width 16
#define tiles103_height 16
static char tiles103_bits[] = {
  0xFF, 0xFF, 0xC1, 0xC8, 0x8F, 0x91, 0x8F, 0x91, 0x8F, 0x91, 0x8F, 0x91, 
  0x01, 0xC0, 0xFF, 0xFF, 0xFF, 0xFF, 0xFF, 0xFF, 0xFF, 0xFF, 0xFF, 0xFF, 
  0xFF, 0xFF, 0xFF, 0xFF, 0xFF, 0xFF, 0xFF, 0xFF, };
