#define tiles186_width 16
#define tiles186_height 16
static char tiles186_bits[] = {
  0x25, 0x62, 0x25, 0xE3, 0x25, 0x63, 0x3D, 0xFF, 0x25, 0x03, 0x25, 0xE3, 
  0x25, 0x63, 0xE7, 0xE3, 0x65, 0x62, 0x65, 0xE2, 0x65, 0x62, 0x7D, 0xFE, 
  0x45, 0x02, 0x65, 0xE2, 0x65, 0x62, 0xE7, 0xE3, };
