#define tiles212_width 16
#define tiles212_height 16
static char tiles212_bits[] = {
  0xFF, 0xFF, 0xFF, 0xFF, 0xFF, 0xFF, 0xFF, 0xFF, 0xFF, 0xFF, 0xFF, 0xFF, 
  0xFF, 0xFF, 0xFF, 0xFF, 0xFF, 0xFF, 0xFF, 0xFF, 0xFF, 0xBF, 0xFF, 0x9F, 
  0xFF, 0x8F, 0xFF, 0x8F, 0xFF, 0x8F, 0xFF, 0xFF, };
