#define tiles191_width 16
#define tiles191_height 16
static char tiles191_bits[] = {
  0xFF, 0xFF, 0x01, 0x80, 0xFD, 0xBF, 0xFD, 0xBF, 0x0D, 0xA0, 0x8F, 0xE1, 
  0x6D, 0xA6, 0x99, 0x99, 0x41, 0x82, 0x65, 0xA6, 0xF9, 0x9F, 0x01, 0x80, 
  0xFD, 0xBF, 0x05, 0xA0, 0x85, 0xA1, 0x05, 0xA0, };
