#define tiles149_width 16
#define tiles149_height 16
static char tiles149_bits[] = {
  0xFF, 0xFF, 0x20, 0xC3, 0xFF, 0xC2, 0xFF, 0xBF, 0x20, 0xC3, 0x10, 0xC2, 
  0x0F, 0xC2, 0x00, 0xBE, 0x00, 0xFE, 0x00, 0xC2, 0x00, 0xC2, 0x00, 0xC2, 
  0x7F, 0xBE, 0xFF, 0xBE, 0xFF, 0xBE, 0xFF, 0xFF, };
