#define tiles148_width 16
#define tiles148_height 16
static char tiles148_bits[] = {
  0xFF, 0xFF, 0xC3, 0x03, 0x81, 0xFD, 0xBD, 0xFF, 0x83, 0x03, 0x81, 0x01, 
  0x81, 0xC1, 0xBD, 0x21, 0xBF, 0x11, 0x83, 0x11, 0x81, 0x11, 0x81, 0x11, 
  0xBD, 0xD9, 0xBD, 0xFD, 0xBD, 0xFD, 0xFF, 0xFF, };
