#define tiles167_width 16
#define tiles167_height 16
static char tiles167_bits[] = {
  0xFF, 0xFF, 0x3F, 0xF8, 0xDF, 0xF3, 0xEF, 0xE7, 0xF7, 0xCF, 0xFB, 0x9F, 
  0xFB, 0x9F, 0x7B, 0x9F, 0x77, 0xEE, 0x6F, 0xF6, 0x7F, 0xFA, 0x7F, 0xFE, 
  0x7F, 0xFE, 0x7F, 0xFE, 0x7F, 0xFE, 0xFF, 0xFF, };
