#define tiles236_width 16
#define tiles236_height 16
static char tiles236_bits[] = {
  0x01, 0xBF, 0x01, 0xBF, 0x01, 0xBF, 0x01, 0x80, 0x01, 0x80, 0x01, 0x80, 
  0x01, 0x80, 0x01, 0x80, 0x51, 0x85, 0xA1, 0x82, 0x51, 0x85, 0x01, 0x80, 
  0x7D, 0x80, 0x7D, 0x80, 0x7D, 0x80, 0x01, 0x80, };
