#define tiles53_width 16
#define tiles53_height 16
static char tiles53_bits[] = {
  0xFF, 0xFF, 0x01, 0x20, 0x01, 0x00, 0x03, 0x00, 0x01, 0x00, 0x01, 0x00, 
  0x07, 0x00, 0x01, 0x00, 0x01, 0x00, 0x01, 0x01, 0xFF, 0xFF, 0x01, 0x01, 
  0xFF, 0xFF, 0xFF, 0xFF, 0x93, 0x24, 0x93, 0x24, };
