#define tiles57_width 16
#define tiles57_height 16
static char tiles57_bits[] = {
  0xFF, 0xFF, 0xFF, 0xFF, 0xFF, 0xFF, 0xFF, 0xFF, 0xFF, 0xFF, 0xFF, 0xFF, 
  0x00, 0x00, 0x22, 0x22, 0x22, 0x22, 0xFF, 0xFF, 0x88, 0x88, 0x88, 0x88, 
  0xFF, 0xFF, 0x22, 0x22, 0x22, 0x22, 0xFF, 0xFF, };
