#define tiles152_width 16
#define tiles152_height 16
static char tiles152_bits[] = {
  0xE5, 0x13, 0x25, 0x12, 0x25, 0x12, 0x25, 0xE2, 0x3D, 0xF2, 0x25, 0xFA, 
  0x25, 0xFE, 0x25, 0x00, 0x25, 0xFF, 0xA5, 0xFF, 0xE5, 0xFF, 0x25, 0x10, 
  0xF5, 0xFF, 0xFD, 0xFF, 0x01, 0x00, 0xFF, 0xFF, };
