#define tiles140_width 16
#define tiles140_height 16
static char tiles140_bits[] = {
  0xFF, 0xFF, 0x00, 0xC0, 0x00, 0x80, 0x00, 0x80, 0x00, 0x82, 0xFF, 0x81, 
  0xFF, 0x81, 0xFF, 0x81, 0x00, 0x81, 0x10, 0x81, 0x0C, 0x81, 0x0E, 0x81, 
  0x07, 0x81, 0x0F, 0x81, 0x0B, 0x81, 0x0B, 0x81, };
