#define tiles49_width 16
#define tiles49_height 16
static char tiles49_bits[] = {
  0x01, 0x80, 0x01, 0x80, 0x01, 0x80, 0x01, 0x80, 0x01, 0x80, 0x01, 0x80, 
  0x01, 0x80, 0x01, 0x80, 0x01, 0xBF, 0x01, 0xBF, 0x01, 0xBF, 0x01, 0x80, 
  0x51, 0x85, 0xA1, 0x82, 0x51, 0x85, 0x01, 0x80, };
