#define tiles138_width 16
#define tiles138_height 16
static char tiles138_bits[] = {
  0xFF, 0xFF, 0x01, 0x80, 0xF9, 0x9F, 0x05, 0xA0, 0xFD, 0xBF, 0x05, 0xA0, 
  0xFD, 0xBF, 0x05, 0xA0, 0xF9, 0x9F, 0x01, 0x80, 0xFD, 0xBF, 0xAD, 0xAA, 
  0xAD, 0xAA, 0x05, 0xA0, 0x01, 0x80, 0xFF, 0xFF, };
