#define tiles235_width 16
#define tiles235_height 16
static char tiles235_bits[] = {
  0x00, 0x80, 0x00, 0x80, 0x00, 0x80, 0x00, 0x80, 0x00, 0x80, 0x00, 0x80, 
  0x00, 0x80, 0x00, 0x80, 0x00, 0xFF, 0x00, 0xFF, 0x00, 0xFF, 0x00, 0x80, 
  0x00, 0x80, 0x00, 0x80, 0x00, 0x80, 0xFF, 0xFF, };
