#define tiles188_width 16
#define tiles188_height 16
static char tiles188_bits[] = {
  0x9F, 0x9F, 0x6F, 0x6F, 0x76, 0x76, 0x78, 0x78, 0x7C, 0x7E, 0xFC, 0xFE, 
  0xFD, 0xFF, 0xFF, 0xFF, 0xFF, 0xFF, 0xFF, 0xFF, 0xFF, 0xFF, 0xFF, 0xFF, 
  0xFF, 0xFF, 0xFF, 0xFF, 0xFF, 0xFF, 0xFF, 0xFF, };
