#define tiles18_width 16
#define tiles18_height 16
static char tiles18_bits[] = {
  0xFF, 0xFF, 0xFF, 0xFF, 0xFF, 0xFF, 0xFF, 0xFF, 0xFF, 0xFF, 0xFF, 0xFF, 
  0xFF, 0xFF, 0xFF, 0xFF, 0xBF, 0xFF, 0x9B, 0xFF, 0x93, 0xFF, 0xD3, 0xFF, 
  0xF7, 0xFF, 0xFF, 0xFF, 0xFF, 0xFF, 0xFF, 0xFF, };
