#define tiles98_width 16
#define tiles98_height 16
static char tiles98_bits[] = {
  0xE0, 0xE7, 0xF0, 0xE3, 0xF8, 0xF1, 0x3E, 0xF0, 0x5F, 0xF8, 0xC7, 0xFC, 
  0xC0, 0xFF, 0xC0, 0xFF, 0xE0, 0xFF, 0xF8, 0xFF, 0xFF, 0xFF, 0xBF, 0xFF, 
  0xBF, 0xFF, 0x80, 0xFF, 0xFF, 0xFF, 0xC0, 0xFF, };
