#define tiles176_width 16
#define tiles176_height 16
static char tiles176_bits[] = {
  0x03, 0x80, 0xFF, 0xFF, 0xFF, 0xFF, 0x1D, 0x80, 0x09, 0x80, 0x09, 0x80, 
  0x11, 0x80, 0x01, 0x80, 0x01, 0x80, 0x01, 0x80, 0x01, 0xC8, 0x01, 0xF0, 
  0x01, 0xC0, 0x01, 0x80, 0x01, 0x80, 0x01, 0x80, };
