#define tiles59_width 16
#define tiles59_height 16
static char tiles59_bits[] = {
  0xFF, 0xFF, 0x01, 0x00, 0x01, 0x00, 0x01, 0x00, 0x01, 0x00, 0xFD, 0xFF, 
  0xFD, 0xFF, 0xFF, 0xFF, 0x07, 0x00, 0x0F, 0x00, 0x1B, 0x00, 0x77, 0x00, 
  0xCF, 0xC3, 0x3F, 0x3C, 0xFF, 0xE7, 0xFF, 0xFF, };
