#define tiles132_width 16
#define tiles132_height 16
static char tiles132_bits[] = {
  0xFF, 0xFF, 0xBD, 0xFE, 0xBD, 0xFE, 0xBD, 0xEC, 0x81, 0x08, 0x81, 0x08, 
  0x83, 0x08, 0xBF, 0x08, 0xBD, 0x10, 0x81, 0xE0, 0x81, 0x00, 0x83, 0x01, 
  0xBD, 0xFF, 0x81, 0xFE, 0xC3, 0x01, 0xFF, 0xFF, };
