#define tiles32_width 16
#define tiles32_height 16
static char tiles32_bits[] = {
  0xDF, 0xDF, 0xF7, 0xF7, 0xFB, 0xFB, 0xFD, 0xFD, 0xFF, 0xFF, 0xFE, 0xFE, 
  0xFF, 0xFF, 0x7F, 0x7F, 0xDF, 0xDF, 0xF7, 0xF7, 0xFB, 0xFB, 0xFD, 0xFD, 
  0xFF, 0xFF, 0xFE, 0xFE, 0xFF, 0xFF, 0x7F, 0x7F, };
