#define tiles61_width 16
#define tiles61_height 16
static char tiles61_bits[] = {
  0xFF, 0xFF, 0xFF, 0xE7, 0x3F, 0x3C, 0xEF, 0xC3, 0x17, 0x00, 0x0F, 0x00, 
  0x0B, 0x00, 0x0B, 0x00, 0x0B, 0xFE, 0x0B, 0x03, 0x07, 0x01, 0x05, 0x01, 
  0x05, 0x41, 0x07, 0x81, 0x0B, 0x81, 0x0B, 0x81, };
