#define tiles194_width 16
#define tiles194_height 16
static char tiles194_bits[] = {
  0x03, 0xC0, 0xF9, 0x9F, 0xF9, 0x9F, 0xFB, 0x9F, 0xFB, 0x9F, 0xF9, 0x9F, 
  0xF9, 0x9F, 0x05, 0xA0, 0x05, 0xAE, 0x05, 0xA2, 0xFD, 0xA3, 0xF9, 0xBF, 
  0xFB, 0x9F, 0xFB, 0x9F, 0x01, 0x80, 0xFF, 0xFF, };
