#define tiles171_width 16
#define tiles171_height 16
static char tiles171_bits[] = {
  0x81, 0xD3, 0x81, 0xD3, 0x81, 0xF3, 0x81, 0xF3, 0x81, 0x63, 0x81, 0x33, 
  0x81, 0x0B, 0x81, 0x03, 0xC1, 0xFF, 0x01, 0x00, 0x01, 0x00, 0x01, 0x00, 
  0x03, 0x00, 0xFF, 0xFF, 0xFF, 0xFF, 0xFF, 0xFF, };
