#define tiles117_width 16
#define tiles117_height 16
static char tiles117_bits[] = {
  0xFF, 0xFF, 0xFF, 0xC3, 0xFF, 0xC1, 0xFF, 0xBD, 0xFF, 0xC1, 0xFF, 0xC1, 
  0xFF, 0xC1, 0xFF, 0xBD, 0xFF, 0xFD, 0xFF, 0xC1, 0xFF, 0xC1, 0xFF, 0xC1, 
  0xFF, 0xBD, 0xFF, 0xBD, 0xFF, 0xBD, 0xFF, 0xFF, };
