#define tiles113_width 16
#define tiles113_height 16
static char tiles113_bits[] = {
  0xFF, 0xFF, 0xF7, 0xFF, 0xFF, 0xFE, 0xBF, 0xFE, 0xBF, 0xFF, 0xFF, 0xFF, 
  0xFF, 0xEF, 0xFF, 0xFF, 0xEF, 0xFF, 0xAB, 0xF7, 0x00, 0x80, 0x00, 0x80, 
  0x00, 0x80, 0xFF, 0xBF, 0xFF, 0xBF, 0xFF, 0xFF, };
