#define tiles105_width 16
#define tiles105_height 16
static char tiles105_bits[] = {
  0xFF, 0xFF, 0xFF, 0xC3, 0xFF, 0xC3, 0x3F, 0xC2, 0x3F, 0xC2, 0x23, 0xC2, 
  0x23, 0xC2, 0x23, 0xC2, 0x23, 0xC2, 0x23, 0xDA, 0x23, 0xDA, 0xA3, 0xDF, 
  0xA3, 0xDF, 0xFB, 0xDF, 0xFB, 0xDF, 0xFF, 0xFF, };
