#define tiles80_width 16
#define tiles80_height 16
static char tiles80_bits[] = {
  0xF8, 0xFF, 0xF8, 0xFF, 0xF0, 0xFF, 0xF8, 0xFE, 0xF0, 0xFA, 0xF8, 0xFB, 
  0xF8, 0xFF, 0xF8, 0xFF, 0xF8, 0xFF, 0xF0, 0xDF, 0xF8, 0xFF, 0xF8, 0xFF, 
  0xF0, 0xFD, 0xF8, 0xFF, 0xF8, 0xFF, 0xFF, 0xFF, };
