#define tiles151_width 16
#define tiles151_height 16
static char tiles151_bits[] = {
  0x0F, 0xB2, 0x0F, 0xB2, 0x0F, 0xB2, 0x07, 0xB1, 0xFF, 0xB0, 0x0F, 0xB0, 
  0x07, 0xB0, 0x01, 0xD8, 0xFF, 0xFF, 0x01, 0xC0, 0x8F, 0x91, 0x8F, 0x91, 
  0x8F, 0x91, 0x8F, 0x91, 0xF1, 0xEE, 0xFF, 0xFF, };
