#define tiles96_width 16
#define tiles96_height 16
static char tiles96_bits[] = {
  0xF8, 0xFF, 0xF8, 0xFF, 0xF0, 0xFF, 0xF8, 0xFF, 0xF0, 0xFB, 0xF8, 0xFF, 
  0xF8, 0xFF, 0xB8, 0xFF, 0xB0, 0xFE, 0xF8, 0xFE, 0xF8, 0xFF, 0xF0, 0xFF, 
  0xF8, 0xFF, 0xF0, 0xFF, 0xF8, 0xFF, 0xFF, 0xFF, };
