#define tiles197_width 16
#define tiles197_height 16
static char tiles197_bits[] = {
  0xFF, 0xFF, 0xFF, 0xFF, 0xFF, 0xFF, 0xFF, 0xFF, 0xFF, 0xFF, 0xFF, 0xFF, 
  0xFF, 0xFF, 0xFF, 0xFF, 0xFF, 0xFF, 0xFF, 0xFF, 0x00, 0x80, 0x00, 0x80, 
  0x00, 0x80, 0xFF, 0xBF, 0xFF, 0xBF, 0xFF, 0xFF, };
