#define tiles102_width 16
#define tiles102_height 16
static char tiles102_bits[] = {
  0xFF, 0xFF, 0x13, 0x83, 0x89, 0xF1, 0x89, 0xF1, 0x89, 0xF1, 0x89, 0xF1, 
  0x03, 0x80, 0xFF, 0xFF, 0xFF, 0xFF, 0xFF, 0xFF, 0xFF, 0xFF, 0xFF, 0xFF, 
  0xFF, 0xFF, 0xFF, 0xFF, 0xFF, 0xFF, 0xFF, 0xFF, };
