#define tiles73_width 16
#define tiles73_height 16
static char tiles73_bits[] = {
  0xFF, 0xFF, 0xFF, 0xFF, 0x9E, 0x3C, 0x97, 0xF4, 0x96, 0x24, 0x92, 0x24, 
  0x97, 0xE4, 0x96, 0x24, 0xFE, 0x3F, 0x07, 0xEA, 0xFE, 0x3F, 0xFA, 0x3F, 
  0x97, 0xE4, 0x96, 0x24, 0xFE, 0x3F, 0xFF, 0xFF, };
