#define tiles143_width 16
#define tiles143_height 16
static char tiles143_bits[] = {
  0x00, 0x00, 0x00, 0x00, 0x00, 0x02, 0x00, 0x02, 0xC3, 0xC3, 0xBC, 0x35, 
  0xE7, 0xE4, 0xFF, 0xFF, 0x10, 0x01, 0xA0, 0x00, 0x60, 0x00, 0x60, 0x00, 
  0xE3, 0xC1, 0x24, 0x32, 0x13, 0xE7, 0xFF, 0xFF, };
