#define tiles160_width 16
#define tiles160_height 16
static char tiles160_bits[] = {
  0xFD, 0xFE, 0x81, 0xFE, 0x81, 0xFC, 0x81, 0x00, 0x01, 0xFD, 0x01, 0xFE, 
  0x01, 0x80, 0x01, 0x80, 0x01, 0x80, 0x01, 0x80, 0x01, 0x80, 0x01, 0x00, 
  0xFD, 0xBF, 0xFD, 0xBF, 0xFD, 0xBF, 0xFD, 0xBF, };
