#define tiles192_width 16
#define tiles192_height 16
static char tiles192_bits[] = {
  0xFC, 0x3F, 0xFE, 0x7F, 0x07, 0xE0, 0x77, 0xEE, 0x77, 0xAE, 0x77, 0xAE, 
  0x77, 0xAE, 0x77, 0xAE, 0x77, 0xA6, 0x77, 0xB6, 0x77, 0xB6, 0x77, 0xB6, 
  0x77, 0xAE, 0x07, 0xA0, 0x07, 0xA0, 0xFF, 0xFF, };
