#define tiles83_width 16
#define tiles83_height 16
static char tiles83_bits[] = {
  0xFF, 0x8F, 0xFF, 0x8F, 0xFF, 0x87, 0x7F, 0x8F, 0xFF, 0x8F, 0xFF, 0x8F, 
  0xFF, 0x8F, 0xEF, 0x87, 0xAF, 0x8F, 0xBF, 0x87, 0xFF, 0x8F, 0xFF, 0x8F, 
  0xFF, 0x8F, 0xFF, 0x87, 0xFF, 0x8F, 0xFF, 0xFF, };
