#define tiles234_width 16
#define tiles234_height 16
static char tiles234_bits[] = {
  0xE3, 0x1F, 0xE3, 0x1F, 0xE3, 0x1F, 0x03, 0x00, 0x57, 0x01, 0xAB, 0x00, 
  0x57, 0x01, 0x03, 0x00, 0x0F, 0x00, 0x0F, 0x00, 0x0F, 0x00, 0x03, 0x00, 
  0x03, 0x00, 0x03, 0x00, 0x03, 0x00, 0xFF, 0xFF, };
