#define tiles232_width 16
#define tiles232_height 16
static char tiles232_bits[] = {
  0x25, 0xE2, 0x25, 0xE3, 0x25, 0xE3, 0x3D, 0x03, 0x25, 0x03, 0x25, 0x03, 
  0x25, 0xFF, 0x27, 0x7F, 0x25, 0x00, 0x25, 0x00, 0xE5, 0xFF, 0x05, 0x08, 
  0x05, 0x08, 0xFD, 0xFF, 0x81, 0x80, 0xFF, 0xFF, };
