#define tiles164_width 16
#define tiles164_height 16
static char tiles164_bits[] = {
  0x0F, 0x80, 0x07, 0x80, 0x03, 0x80, 0xE1, 0xBF, 0xF0, 0xFF, 0xF8, 0xFF, 
  0xF8, 0xFF, 0xF8, 0xFF, 0xF8, 0xFE, 0xF8, 0xFF, 0xF8, 0xFF, 0xF8, 0xFF, 
  0xF8, 0xFF, 0xF8, 0xFF, 0xF8, 0xFF, 0xFF, 0xFF, };
