#define tiles219_width 16
#define tiles219_height 16
static char tiles219_bits[] = {
  0x00, 0x00, 0xFF, 0xFF, 0xFF, 0xFF, 0x00, 0x80, 0xF0, 0x8F, 0xF0, 0x8F, 
  0xF0, 0x8F, 0x00, 0x80, 0x00, 0xFF, 0x00, 0xFF, 0x00, 0xFF, 0x00, 0x80, 
  0xF0, 0x8F, 0xF0, 0x8F, 0xF0, 0x8F, 0x00, 0x80, };
