#define tiles72_width 16
#define tiles72_height 16
static char tiles72_bits[] = {
  0xFF, 0xFF, 0xF3, 0xFF, 0xE3, 0x3F, 0xBF, 0xED, 0xA3, 0x2D, 0x23, 0x20, 
  0xBF, 0xED, 0xA3, 0x2D, 0x13, 0x40, 0x1F, 0xC0, 0xF3, 0xFF, 0xC3, 0xFF, 
  0xFF, 0xFF, 0x01, 0x00, 0x01, 0x00, 0xFF, 0xFF, };
