#define tiles185_width 16
#define tiles185_height 16
static char tiles185_bits[] = {
  0x00, 0x00, 0xFE, 0x7F, 0xE0, 0x7F, 0xE0, 0x7F, 0x20, 0x7E, 0x20, 0x7E, 
  0x20, 0x66, 0x20, 0x66, 0x20, 0x66, 0x20, 0x66, 0x20, 0x66, 0x20, 0x66, 
  0x20, 0x66, 0x20, 0x66, 0xFE, 0x7F, 0x00, 0x00, };
