#define tiles196_width 16
#define tiles196_height 16
static char tiles196_bits[] = {
  0xF8, 0xFF, 0xF8, 0xFF, 0xF8, 0xFF, 0xF8, 0xFF, 0xF8, 0xF7, 0xF8, 0xFF, 
  0xF8, 0xFF, 0xF8, 0xFF, 0xF8, 0xFF, 0xF0, 0xFF, 0x00, 0x80, 0x00, 0x80, 
  0x01, 0x80, 0xC3, 0xBF, 0xC7, 0xBF, 0xFF, 0xFF, };
