#define tiles70_width 16
#define tiles70_height 16
static char tiles70_bits[] = {
  0xFF, 0xFF, 0x03, 0x88, 0x01, 0x24, 0x01, 0x54, 0x57, 0x57, 0x01, 0x24, 
  0x03, 0x88, 0xFF, 0xFF, 0xFF, 0xFF, 0xFF, 0xFF, 0xFF, 0xFF, 0xFF, 0xFF, 
  0xFF, 0xFF, 0xFF, 0xFF, 0xFF, 0xFF, 0xFF, 0xFF, };
