#define tiles82_width 16
#define tiles82_height 16
static char tiles82_bits[] = {
  0xFF, 0xFF, 0xFE, 0xFF, 0xF9, 0xFF, 0xF0, 0xFF, 0xB0, 0xFF, 0x38, 0xFF, 
  0x1E, 0xFE, 0x07, 0xFF, 0x90, 0xFF, 0xF0, 0xF9, 0xF8, 0xF0, 0x3C, 0xF0, 
  0x1F, 0xF8, 0x07, 0xF8, 0x00, 0xEC, 0x20, 0xEE, };
