#define tiles153_width 16
#define tiles153_height 16
static char tiles153_bits[] = {
  0x78, 0xB7, 0x78, 0xB7, 0x78, 0xB7, 0x7F, 0xBF, 0x6F, 0xB7, 0x5F, 0xB7, 
  0x7F, 0xB7, 0x01, 0xB7, 0xFF, 0xB6, 0xFF, 0xB5, 0xFF, 0xB7, 0x10, 0xB0, 
  0xFF, 0xBF, 0xFF, 0xBF, 0x00, 0x80, 0xFF, 0xFF, };
