#define tiles104_width 16
#define tiles104_height 16
static char tiles104_bits[] = {
  0x78, 0xB7, 0x78, 0xB7, 0x78, 0xB7, 0x78, 0xBF, 0x78, 0xB7, 0x78, 0xB7, 
  0x78, 0xB7, 0xF8, 0xB7, 0x78, 0xB7, 0x78, 0xB7, 0x78, 0xB7, 0x78, 0xBF, 
  0x78, 0xB7, 0x78, 0xB7, 0x78, 0xB7, 0xF8, 0xB7, };
