#define tiles78_width 16
#define tiles78_height 16
static char tiles78_bits[] = {
  0xFF, 0xFF, 0xFF, 0xFF, 0xFF, 0xFF, 0x7F, 0xFE, 0x6F, 0xF3, 0x5F, 0xF6, 
  0x63, 0xFA, 0x47, 0xFE, 0x7F, 0xE2, 0xB7, 0xC4, 0x8B, 0xCE, 0xC3, 0xFE, 
  0xFF, 0xFE, 0x7F, 0xFE, 0x7F, 0xFE, 0xFF, 0xFF, };
