#define tiles172_width 16
#define tiles172_height 16
static char tiles172_bits[] = {
  0x0B, 0x81, 0x0B, 0x81, 0x0F, 0x81, 0x0F, 0x81, 0x06, 0x81, 0x0C, 0x81, 
  0x10, 0x81, 0x00, 0x81, 0xFF, 0x83, 0x00, 0x80, 0x00, 0x80, 0x00, 0x80, 
  0x00, 0xC0, 0xFF, 0xFF, 0xFF, 0xFF, 0xFF, 0xFF, };
