#define tiles158_width 16
#define tiles158_height 16
static char tiles158_bits[] = {
  0x00, 0x00, 0xE0, 0x07, 0xF8, 0x1F, 0xFC, 0x3F, 0xFF, 0xFF, 0xFE, 0x7F, 
  0xFF, 0xFF, 0xFD, 0xBF, 0xFE, 0x7F, 0xFE, 0x7F, 0xFD, 0xBF, 0xFD, 0xBF, 
  0xFE, 0x7F, 0xFD, 0xBF, 0xFB, 0xDF, 0xFF, 0xFF, };
