#define tiles76_width 16
#define tiles76_height 16
static char tiles76_bits[] = {
  0xFF, 0xFF, 0xFF, 0xFF, 0xFF, 0xFF, 0xFF, 0xFF, 0xFF, 0xFF, 0xFF, 0xFF, 
  0xFF, 0xFF, 0xFF, 0xFF, 0xFF, 0xFF, 0xC0, 0xFF, 0x80, 0xFC, 0x80, 0xF7, 
  0x82, 0xE8, 0x81, 0xF1, 0x81, 0xE3, 0x81, 0xE3, };
