#define tiles30_width 16
#define tiles30_height 16
static char tiles30_bits[] = {
  0xFF, 0xFE, 0x77, 0xEC, 0x03, 0xC1, 0x98, 0x1B, 0xFD, 0xBF, 0xE5, 0xA7, 
  0xE5, 0xA7, 0x3D, 0x78, 0xE6, 0xA7, 0xE5, 0xA7, 0x25, 0xA0, 0xE6, 0x67, 
  0xE5, 0xA7, 0x2B, 0x90, 0xF3, 0xEF, 0x0F, 0xE0, };
