#define tiles71_width 16
#define tiles71_height 16
static char tiles71_bits[] = {
  0xFF, 0xFF, 0x11, 0xC0, 0x24, 0x80, 0x2A, 0x80, 0xEA, 0xEA, 0x24, 0x80, 
  0x11, 0xC0, 0xFF, 0xFF, 0xFF, 0xFF, 0xFF, 0xFF, 0xFF, 0xFF, 0xFF, 0xFF, 
  0xFF, 0xFF, 0xFF, 0xFF, 0xFF, 0xFF, 0xFF, 0xFF, };
