#define tiles11_width 16
#define tiles11_height 16
static char tiles11_bits[] = {
  0xFF, 0xFF, 0xFF, 0xFF, 0xFF, 0xFF, 0xFF, 0xFF, 0xFF, 0xFF, 0xFF, 0xFF, 
  0xFF, 0xFF, 0xFF, 0xFF, 0xFF, 0xFF, 0xFF, 0xBF, 0xFF, 0x7F, 0xFF, 0x7B, 
  0xFF, 0xB7, 0xFF, 0xC7, 0xFF, 0xF7, 0xFF, 0x7B, };
