#define tiles21_width 16
#define tiles21_height 16
static char tiles21_bits[] = {
  0xFF, 0xFF, 0xFF, 0xFF, 0xF7, 0xFF, 0xEB, 0xFF, 0xF7, 0xFF, 0xFF, 0xFF, 
  0xFF, 0xFF, 0xFF, 0xFF, 0xFF, 0xF7, 0xFF, 0xFE, 0xFF, 0xFF, 0xFF, 0xEF, 
  0xFF, 0xD7, 0xFF, 0xEF, 0xFF, 0xFF, 0xFF, 0xFF, };
