#define tiles131_width 16
#define tiles131_height 16
static char tiles131_bits[] = {
  0xFF, 0xFF, 0xFF, 0xC0, 0xFF, 0x81, 0xE0, 0x81, 0xDF, 0x81, 0xDF, 0x81, 
  0xD8, 0x81, 0xD0, 0x81, 0xD0, 0x81, 0xD0, 0x81, 0xD0, 0x81, 0xD0, 0x81, 
  0xD0, 0x81, 0xD1, 0x81, 0xD1, 0x81, 0xDD, 0xBF, };
