#define tiles193_width 16
#define tiles193_height 16
static char tiles193_bits[] = {
  0xFF, 0xFF, 0xFF, 0xFF, 0x3F, 0xFC, 0xDF, 0xFB, 0xEF, 0xF5, 0xEF, 0xF3, 
  0xEF, 0xF7, 0xD7, 0xEB, 0x2B, 0xDC, 0xCB, 0xFF, 0x8B, 0xF7, 0x13, 0xF8, 
  0x27, 0xFC, 0xCF, 0xFF, 0x1F, 0xFC, 0xFF, 0xFF, };
