#define tiles81_width 16
#define tiles81_height 16
static char tiles81_bits[] = {
  0xFF, 0xFF, 0xFF, 0x3F, 0xFF, 0xCF, 0xFF, 0x87, 0xFF, 0x05, 0xFF, 0x08, 
  0x7F, 0x30, 0x7F, 0xC0, 0xBF, 0x00, 0x1F, 0x09, 0x0F, 0x1E, 0x0F, 0x3C, 
  0x0F, 0xE0, 0x1F, 0x00, 0x17, 0x00, 0x27, 0x00, };
