#define tiles51_width 16
#define tiles51_height 16
static char tiles51_bits[] = {
  0xFF, 0xFF, 0x11, 0x08, 0x01, 0x08, 0x01, 0x00, 0x01, 0x00, 0x01, 0x00, 
  0x01, 0x00, 0x01, 0x00, 0x01, 0x00, 0x41, 0x00, 0xFF, 0xFF, 0x49, 0x08, 
  0xFF, 0xFF, 0xF3, 0xFF, 0xE3, 0xFF, 0xFF, 0xFF, };
