#define tiles119_width 16
#define tiles119_height 16
static char tiles119_bits[] = {
  0xFF, 0xFF, 0xFF, 0xFF, 0xFF, 0xFF, 0xFF, 0xFF, 0xFF, 0xFF, 0xFF, 0xFF, 
  0xFF, 0xFF, 0xFF, 0xFF, 0xFF, 0xFF, 0x01, 0xC0, 0x8F, 0x91, 0x8F, 0x91, 
  0x8F, 0x91, 0x8F, 0x91, 0xF1, 0xEE, 0xFF, 0xFF, };
