#define tiles74_width 16
#define tiles74_height 16
static char tiles74_bits[] = {
  0xFF, 0xFF, 0xFF, 0xFF, 0xFC, 0xC7, 0xB7, 0xFD, 0xB4, 0xC5, 0x04, 0xC4, 
  0xB7, 0xFD, 0xB4, 0xC5, 0x02, 0xC8, 0x03, 0xF8, 0xFE, 0xDF, 0xF8, 0xDF, 
  0xFF, 0xFF, 0x00, 0x80, 0x00, 0x80, 0xFF, 0xFF, };
