#define tiles145_width 16
#define tiles145_height 16
static char tiles145_bits[] = {
  0xFF, 0xFF, 0xFF, 0xFF, 0x3F, 0xF8, 0x1F, 0xF6, 0x0F, 0xEE, 0x07, 0xDE, 
  0x03, 0xBD, 0x83, 0x9B, 0xCB, 0xA7, 0x1B, 0xB0, 0xDB, 0xB7, 0xDB, 0xB7, 
  0xDB, 0xB7, 0xD7, 0xD7, 0xCF, 0xE7, 0x3F, 0xF8, };
