#define tiles136_width 16
#define tiles136_height 16
static char tiles136_bits[] = {
  0xFF, 0xFF, 0x01, 0x00, 0xFD, 0xFF, 0x05, 0x08, 0x05, 0x08, 0xE5, 0xFF, 
  0x25, 0x80, 0x25, 0x80, 0x25, 0x80, 0x25, 0xFE, 0x25, 0x02, 0x25, 0x02, 
  0x3D, 0xE2, 0x25, 0x12, 0x25, 0x12, 0x25, 0x12, };
