#define tiles137_width 16
#define tiles137_height 16
static char tiles137_bits[] = {
  0xFF, 0xFF, 0x00, 0x80, 0xFF, 0xBF, 0x08, 0xA0, 0x08, 0xB0, 0xFF, 0xB7, 
  0x00, 0xB4, 0x00, 0xB6, 0x00, 0xB7, 0x7F, 0xB7, 0x40, 0xB7, 0x60, 0xBF, 
  0x77, 0xB7, 0x78, 0xB7, 0x78, 0xB7, 0xF8, 0xB7, };
