#define tiles135_width 16
#define tiles135_height 16
static char tiles135_bits[] = {
  0xFF, 0xFF, 0xC1, 0xC8, 0x8F, 0x91, 0x8F, 0x91, 0x8F, 0x91, 0x8F, 0x91, 
  0x01, 0xC0, 0xFF, 0xFF, 0x01, 0xD8, 0x07, 0xB0, 0x0F, 0xB0, 0x0F, 0xF8, 
  0x0F, 0xB4, 0x0F, 0xB2, 0x0F, 0xB2, 0x0F, 0xB2, };
