#define tiles38_width 16
#define tiles38_height 16
static char tiles38_bits[] = {
  0x61, 0x00, 0xC1, 0x00, 0x81, 0x0F, 0x01, 0x1E, 0x03, 0xF0, 0x07, 0xE0, 
  0x1F, 0x80, 0x3F, 0x04, 0xFF, 0x0F, 0xFF, 0x1F, 0x7F, 0xFA, 0x3F, 0xE4, 
  0xFF, 0xC7, 0xFF, 0x6F, 0xFF, 0x3F, 0xFF, 0x7F, };
