#define tiles237_width 16
#define tiles237_height 16
static char tiles237_bits[] = {
  0x00, 0x00, 0x00, 0x00, 0x00, 0x00, 0x00, 0x00, 0xF0, 0x0F, 0xF0, 0x0F, 
  0xF0, 0x0F, 0x00, 0x00, 0x55, 0x00, 0x2A, 0x00, 0x55, 0x00, 0x00, 0x00, 
  0x00, 0x00, 0x00, 0x00, 0x00, 0x00, 0xFF, 0xFF, };
