#define tiles199_width 16
#define tiles199_height 16
static char tiles199_bits[] = {
  0xFF, 0xFF, 0x1F, 0xFC, 0xCF, 0xFB, 0xE7, 0xF7, 0xF3, 0xEF, 0xF9, 0xDF, 
  0xF9, 0xDF, 0xF9, 0xDE, 0x77, 0xEE, 0x6F, 0xF6, 0x5F, 0xFE, 0x7F, 0xFE, 
  0x7F, 0xFE, 0x7F, 0xFE, 0x7F, 0xFE, 0xFF, 0xFF, };
