#define tiles187_width 16
#define tiles187_height 16
static char tiles187_bits[] = {
  0xFF, 0xDF, 0xFF, 0xBF, 0xFF, 0x7F, 0xFF, 0x7F, 0xFF, 0x7F, 0xFF, 0x3F, 
  0xFF, 0x1F, 0xFF, 0x8F, 0xFF, 0xCF, 0xFF, 0xDF, 0xFF, 0xBF, 0xFF, 0x7F, 
  0xFF, 0x3F, 0xFF, 0x1F, 0xFF, 0x1F, 0xFF, 0x9F, };
