#define tiles14_width 16
#define tiles14_height 16
static char tiles14_bits[] = {
  0x00, 0x00, 0x00, 0x00, 0xFF, 0xFF, 0x81, 0x81, 0x7E, 0x7E, 0xFF, 0xFF, 
  0xFF, 0xFF, 0xFF, 0xFF, 0xFF, 0xFF, 0xFF, 0xFF, 0xFF, 0xFF, 0xFF, 0xFF, 
  0xFF, 0xFF, 0xFF, 0xFF, 0xFF, 0xFF, 0xFF, 0xFF, };
