#define tiles195_width 16
#define tiles195_height 16
static char tiles195_bits[] = {
  0xFF, 0xFF, 0x3F, 0xFC, 0x0F, 0xF0, 0xC7, 0xE3, 0x23, 0xC4, 0x93, 0xC9, 
  0x09, 0x90, 0xA9, 0x95, 0xA9, 0x95, 0x09, 0x90, 0x93, 0xC9, 0x23, 0xC4, 
  0xC7, 0xE3, 0x0F, 0xF0, 0x3F, 0xFC, 0xFF, 0xFF, };
