#define tiles222_width 16
#define tiles222_height 16
static char tiles222_bits[] = {
  0xFF, 0xFF, 0x01, 0x80, 0xFF, 0xFF, 0x01, 0x80, 0x01, 0x80, 0xE1, 0x8F, 
  0x11, 0x98, 0x0F, 0xF0, 0x09, 0xB0, 0xFD, 0xFF, 0x03, 0xC0, 0x01, 0x80, 
  0x01, 0x80, 0xFD, 0xBF, 0x03, 0xC0, 0x01, 0x80, };
