#define tiles75_width 16
#define tiles75_height 16
static char tiles75_bits[] = {
  0xFF, 0xFF, 0xFF, 0xFF, 0xFF, 0xFF, 0xFF, 0xFF, 0xFF, 0xFF, 0xFF, 0xFF, 
  0xFF, 0xFF, 0xFF, 0xFF, 0xFF, 0xFF, 0xFF, 0x03, 0x3F, 0x01, 0xEF, 0x01, 
  0x17, 0x41, 0x0F, 0x81, 0x0B, 0x81, 0x0B, 0x81, };
