#define tiles125_width 16
#define tiles125_height 16
static char tiles125_bits[] = {
  0x0F, 0x00, 0x0B, 0x00, 0x17, 0x00, 0x6F, 0x00, 0x9F, 0xC3, 0x7D, 0x3C, 
  0xF3, 0xE7, 0xC7, 0xFF, 0x07, 0x00, 0x0F, 0x00, 0x1B, 0x00, 0x77, 0x00, 
  0xCF, 0xC3, 0x3F, 0x3C, 0xFF, 0xE7, 0xFF, 0xFF, };
