#define tiles90_width 16
#define tiles90_height 16
static char tiles90_bits[] = {
  0x00, 0x00, 0x00, 0x00, 0x00, 0x00, 0xFF, 0x1F, 0xFF, 0x1F, 0xFF, 0x17, 
  0xFF, 0x13, 0x01, 0x13, 0xFF, 0x12, 0x7F, 0x12, 0x3F, 0x12, 0x30, 0x12, 
  0x2F, 0x12, 0x27, 0x12, 0x24, 0x12, 0x25, 0x12, };
