#define tiles7_width 16
#define tiles7_height 16
static char tiles7_bits[] = {
  0x61, 0x00, 0xC3, 0x00, 0x8F, 0x0F, 0x38, 0x1E, 0xE0, 0xF0, 0x80, 0xE3, 
  0x00, 0x8F, 0x00, 0x3E, 0x00, 0x7E, 0x00, 0xFB, 0x80, 0xF3, 0xF0, 0xE3, 
  0xF8, 0xE1, 0x7F, 0x60, 0x3F, 0xF0, 0x1F, 0xD8, };
