#define tiles45_width 16
#define tiles45_height 16
static char tiles45_bits[] = {
  0xDC, 0xFF, 0xEC, 0xFF, 0xF4, 0xFF, 0xF6, 0xFF, 0xF6, 0xFF, 0xD6, 0xFF, 
  0xEE, 0xFF, 0xEC, 0xFF, 0xEC, 0xFD, 0xD8, 0xFE, 0x39, 0x7F, 0xF9, 0xBD, 
  0xF3, 0xC3, 0xA7, 0xFF, 0x0F, 0x3C, 0x3F, 0x00, };
