#define tiles69_width 16
#define tiles69_height 16
static char tiles69_bits[] = {
  0xFF, 0xC3, 0xFF, 0x99, 0xFF, 0xA5, 0xFF, 0x99, 0xFF, 0xC3, 0xFF, 0xBD, 
  0xFF, 0x85, 0xFF, 0x85, 0xFF, 0x81, 0xFF, 0x85, 0xFF, 0x81, 0xFF, 0x85, 
  0xFF, 0x81, 0xFF, 0x91, 0xFF, 0xD3, 0xFF, 0xFF, };
