#define tiles66_width 16
#define tiles66_height 16
static char tiles66_bits[] = {
  0x00, 0x80, 0x00, 0x80, 0x02, 0x82, 0x56, 0xAB, 0xFF, 0xFF, 0xFF, 0xFF, 
  0xFF, 0xFF, 0xFF, 0xFD, 0xEF, 0xF5, 0xD7, 0xF7, 0xEF, 0xFF, 0xFF, 0xFF, 
  0xFF, 0xFF, 0xFF, 0xFF, 0xFF, 0xFF, 0xFF, 0xF7, };
