#define tiles147_width 16
#define tiles147_height 16
static char tiles147_bits[] = {
  0xD1, 0x81, 0xD1, 0x81, 0xD1, 0x81, 0xD1, 0x81, 0xD1, 0x81, 0xD1, 0x81, 
  0xD1, 0x81, 0xD1, 0x81, 0xD1, 0x81, 0xD1, 0x81, 0xD1, 0x81, 0xD1, 0x81, 
  0xD1, 0x81, 0xD1, 0x81, 0xD1, 0x81, 0xD1, 0x81, };
