#define tiles165_width 16
#define tiles165_height 16
static char tiles165_bits[] = {
  0x00, 0x80, 0x00, 0x80, 0x00, 0x80, 0xFF, 0xBF, 0xFF, 0xFF, 0xFF, 0xFF, 
  0xFF, 0xFF, 0xFF, 0xFF, 0xFF, 0xFF, 0xFF, 0xFF, 0xFF, 0xFF, 0xFF, 0xFF, 
  0xFF, 0xFF, 0xFF, 0xFF, 0xFF, 0xFF, 0xFF, 0xFF, };
