#define tiles181_width 16
#define tiles181_height 16
static char tiles181_bits[] = {
  0xFF, 0xFF, 0x1F, 0xFC, 0xCF, 0xFB, 0xE7, 0xF7, 0xF3, 0xEF, 0x09, 0xD1, 
  0x59, 0xD2, 0x49, 0xD9, 0xF7, 0xEF, 0xEF, 0xF7, 0xDF, 0xFB, 0x3F, 0xFC, 
  0xFF, 0xFF, 0x3F, 0xFF, 0x3F, 0xFF, 0xFF, 0xFF, };
