#define tiles60_width 16
#define tiles60_height 16
static char tiles60_bits[] = {
  0xFF, 0xFF, 0x01, 0x00, 0x01, 0x00, 0x01, 0x00, 0x01, 0x00, 0xFD, 0xFF, 
  0xFD, 0xFF, 0xFF, 0xFF, 0x00, 0x00, 0x00, 0x00, 0x00, 0x00, 0x00, 0x00, 
  0xC3, 0xC3, 0x3C, 0x3C, 0xE7, 0xE7, 0xFF, 0xFF, };
