#define tiles226_width 16
#define tiles226_height 16
static char tiles226_bits[] = {
  0x00, 0x00, 0xFF, 0xFF, 0xFF, 0xFF, 0x00, 0x00, 0xFE, 0x00, 0xFE, 0x00, 
  0xFE, 0x00, 0x00, 0x00, 0x00, 0x00, 0x00, 0x00, 0xF0, 0x0F, 0x1C, 0x38, 
  0x12, 0x58, 0x12, 0x58, 0x26, 0x6C, 0x24, 0x2C, };
