#define tiles20_width 16
#define tiles20_height 16
static char tiles20_bits[] = {
  0xFF, 0xFF, 0xFF, 0xFF, 0xFF, 0xFF, 0xFF, 0xFF, 0xFF, 0xFF, 0xFF, 0xFF, 
  0xFF, 0xFF, 0xFF, 0xFF, 0xF7, 0xFF, 0x67, 0xFF, 0x27, 0xFF, 0x2F, 0xFF, 
  0xBF, 0xFF, 0xFF, 0xFF, 0xFF, 0xFF, 0xFF, 0xFF, };
