#define tiles203_width 16
#define tiles203_height 16
static char tiles203_bits[] = {
  0xFB, 0xFF, 0xFD, 0xFF, 0xFE, 0xFF, 0xFE, 0xFF, 0xFE, 0xFF, 0xFC, 0xFF, 
  0xF8, 0xFF, 0xF1, 0xFF, 0xF3, 0xFF, 0xFB, 0xFF, 0xFD, 0xFF, 0xFE, 0xFF, 
  0xFC, 0xFF, 0xF8, 0xFF, 0xF8, 0xFF, 0xF9, 0xFF, };
