#define tiles206_width 16
#define tiles206_height 16
static char tiles206_bits[] = {
  0xFD, 0xBF, 0x05, 0xA0, 0x85, 0xA1, 0x05, 0xA0, 0xFD, 0xBF, 0x05, 0xA0, 
  0x85, 0xA1, 0x05, 0xA0, 0xFD, 0xBF, 0x01, 0x80, 0xFF, 0xFF, 0xE3, 0xC7, 
  0xFF, 0xFF, 0xFF, 0xFF, 0xFF, 0xFF, 0xFF, 0xFF, };
