#define tiles175_width 16
#define tiles175_height 16
static char tiles175_bits[] = {
  0x55, 0x55, 0xF3, 0xCF, 0xFD, 0xBF, 0xFE, 0x7F, 0x0E, 0x60, 0x07, 0xC0, 
  0xFF, 0xFF, 0xFF, 0xFF, 0x07, 0xC0, 0x03, 0x80, 0xFF, 0xFF, 0xFF, 0xFF, 
  0x07, 0xC0, 0x03, 0x80, 0xFF, 0xFF, 0xFF, 0xFF, };
