#define tiles68_width 16
#define tiles68_height 16
static char tiles68_bits[] = {
  0xC3, 0xFF, 0x99, 0xFF, 0xA5, 0xFF, 0x99, 0xFF, 0xC3, 0xFF, 0xBD, 0xFF, 
  0x91, 0xFF, 0x91, 0xFF, 0x81, 0xFF, 0x91, 0xFF, 0x81, 0xFF, 0x91, 0xFF, 
  0x81, 0xFF, 0x91, 0xFF, 0xD3, 0xFF, 0xFF, 0xFF, };
