#define tiles58_width 16
#define tiles58_height 16
static char tiles58_bits[] = {
  0xBF, 0x7F, 0xBF, 0x7F, 0xBF, 0x7F, 0xBF, 0x7F, 0xBF, 0x7F, 0x9F, 0x7F, 
  0x00, 0x7F, 0x22, 0x7E, 0x22, 0x7C, 0xFF, 0x7B, 0x88, 0x70, 0x88, 0x68, 
  0xFF, 0x5F, 0x22, 0x22, 0x22, 0xA2, 0xFF, 0xFF, };
