#define tiles218_width 16
#define tiles218_height 16
static char tiles218_bits[] = {
  0x00, 0x00, 0xFF, 0xFF, 0xFF, 0xFF, 0x03, 0x00, 0xAB, 0x00, 0x57, 0x00, 
  0xAB, 0x00, 0x03, 0x00, 0xEF, 0x1F, 0xEF, 0x1F, 0xEF, 0x1F, 0x03, 0x00, 
  0x03, 0x00, 0x03, 0x00, 0x03, 0x00, 0x03, 0x00, };
