#define tiles93_width 16
#define tiles93_height 16
static char tiles93_bits[] = {
  0x0B, 0xC1, 0x0B, 0x01, 0x07, 0x01, 0x05, 0x01, 0x05, 0x03, 0x07, 0xFF, 
  0x0B, 0xFF, 0x0B, 0xFE, 0x0F, 0x00, 0x0B, 0x00, 0x17, 0x00, 0x6F, 0x00, 
  0x9F, 0xC3, 0x7D, 0x3C, 0xF3, 0xE7, 0xC7, 0xFF, };
