#define tiles166_width 16
#define tiles166_height 16
static char tiles166_bits[] = {
  0x00, 0xF8, 0x00, 0xF0, 0x00, 0xE0, 0xFF, 0xC3, 0xFF, 0x87, 0xFF, 0x8F, 
  0xFF, 0x8F, 0xFF, 0x8F, 0xFF, 0x8F, 0xBF, 0x8F, 0xFF, 0x8F, 0xFF, 0x8F, 
  0xFF, 0x8F, 0xFF, 0x8F, 0xFF, 0x8F, 0xFF, 0xFF, };
