#define tiles227_width 16
#define tiles227_height 16
static char tiles227_bits[] = {
  0x01, 0x80, 0x03, 0xC0, 0x01, 0x80, 0x01, 0x80, 0x01, 0x80, 0x03, 0xC0, 
  0x01, 0x80, 0x01, 0x80, 0x01, 0x80, 0x01, 0x80, 0x03, 0xC0, 0xFF, 0xFF, 
  0xFF, 0xFF, 0x01, 0x80, 0xF9, 0x9F, 0xFF, 0xFF, };
