#define tiles223_width 16
#define tiles223_height 16
static char tiles223_bits[] = {
  0xFF, 0xFF, 0xFF, 0xFF, 0x45, 0xA6, 0x45, 0xA0, 0x7D, 0xA0, 0xC5, 0xBF, 
  0x55, 0xA6, 0x45, 0xA0, 0xFD, 0xBF, 0x01, 0x80, 0xFF, 0xFF, 0xF1, 0x8F, 
  0xFF, 0xFF, 0xFF, 0xFF, 0xFF, 0xFF, 0xFF, 0xFF, };
