#define tiles162_width 16
#define tiles162_height 16
static char tiles162_bits[] = {
  0xFF, 0xFF, 0xFB, 0xDF, 0xFB, 0xDF, 0xF8, 0x1F, 0x1F, 0xF0, 0xF9, 0x9F, 
  0xF9, 0x9F, 0xF9, 0x9F, 0x19, 0x90, 0xF9, 0x9F, 0xF9, 0x9F, 0xF9, 0x9F, 
  0x19, 0x90, 0xF9, 0x9F, 0xF9, 0x9F, 0xF9, 0x9F, };
