#define tiles65_width 16
#define tiles65_height 16
static char tiles65_bits[] = {
  0x00, 0x80, 0x00, 0x80, 0x40, 0x84, 0x6A, 0xAD, 0xFF, 0xFF, 0xFF, 0xFF, 
  0xFF, 0xFF, 0xFF, 0xFF, 0xFF, 0xFF, 0xDF, 0xFF, 0xD7, 0xFF, 0xF7, 0xFF, 
  0xFF, 0xFF, 0xFF, 0xFF, 0xFF, 0xF7, 0xFF, 0xFF, };
