#define tiles29_width 16
#define tiles29_height 16
static char tiles29_bits[] = {
  0xDC, 0xFF, 0xEC, 0xFF, 0xF4, 0xFF, 0xF6, 0xFF, 0xF6, 0xFF, 0xF6, 0xFF, 
  0xEE, 0xFF, 0xEC, 0xFF, 0xF4, 0xFF, 0xF6, 0xFF, 0xF6, 0xFF, 0xF6, 0xFF, 
  0xF6, 0xFF, 0xEE, 0xFF, 0xEC, 0xFF, 0xDC, 0xFF, };
